<svg xmlns="http://www.w3.org/2000/svg" version="1.1" xmlns:xlink="http://www.w3.org/1999/xlink" viewBox="0 0 11.554293218357941 9.971629698812318"><g transform="matrix(0.8475344417609286,0,0,0.8475344417609286,1.6409809270887914,7.40628964353837)"><rect width="13.34812012812213" height="13.34812012812213" x="-1.7938269097641886" y="-9.529961458585129" fill="#fffcf7"></rect><g transform="matrix(1,0,0,1,0,0)" clip-path="url(#SvgjsClipPath45533)"><g clip-path="url(#SvgjsClipPath455289331f533-8b48-4a97-8009-fcfc06b63320)"><path d=" M 4.878057657495716 -6.94480278904813 L 5.259509482270066 -6.94480278904813 L 5.259509482270066 -6.181899139499429 L 4.878057657495716 -6.181899139499429 Z" fill="#431a10" transform="matrix(1,0,0,1,0,0)" fill-rule="nonzero"></path></g><g clip-path="url(#SvgjsClipPath455289331f533-8b48-4a97-8009-fcfc06b63320)"><path d=" M 1.642182432079406 -6.94480278904813 L 2.0236342568537564 -6.94480278904813 L 2.0236342568537564 -6.181899139499429 L 1.642182432079406 -6.181899139499429 Z" fill="#431a10" transform="matrix(1,0,0,1,0,0)" fill-rule="nonzero"></path></g><g clip-path="url(#SvgjsClipPath455289331f533-8b48-4a97-8009-fcfc06b63320)"><path d=" M 3.4524622784661525 -2.913697488254785 C 3.038684027863468 -2.913697488254785 2.6830933437517857 -2.2897974697679233 2.537624427524279 -1.161605208359041 L 4.367300129408028 -1.161605208359041 C 4.2185985705976865 -2.2897974697679233 3.8662405290688375 -2.913697488254785 3.4524622784661525 -2.913697488254785 Z" fill="#431a10" transform="matrix(1,0,0,1,0,0)" fill-rule="nonzero"></path></g><g clip-path="url(#SvgjsClipPath455289331f533-8b48-4a97-8009-fcfc06b63320)"><path d=" M 4.680866459942874 -2.6874125074564423 C 4.548328114046702 -2.6874125074564423 4.422255053316196 -2.622759655799773 4.305879920334191 -2.4966865950692663 C 4.464279406893031 -2.1604917664545846 4.583887182457869 -1.7079218048578984 4.651772676697372 -1.161605208359041 L 5.563377885056412 -1.161605208359041 C 5.398513113331905 -2.1443285535404177 5.065550927300058 -2.6874125074564423 4.680866459942874 -2.6874125074564423 Z" fill="#431a10" transform="matrix(1,0,0,1,0,0)" fill-rule="nonzero"></path></g><g clip-path="url(#SvgjsClipPath455289331f533-8b48-4a97-8009-fcfc06b63320)"><path d=" M 2.2499192376520996 -1.16160520835904 C 2.3178047318916026 -1.7079218048578984 2.4374125074564414 -2.157259123871752 2.5958119940152815 -2.4966865950692663 C 2.479436861033277 -2.622759655799771 2.353363800302771 -2.6874125074564414 2.2208254544065986 -2.6874125074564414 C 1.8361409870494152 -2.6874125074564414 1.5031788010175668 -2.1475611961232506 1.341546671875893 -1.1648378509418738 L 2.2499192376520996 -1.1648378509418738 Z" fill="#431a10" transform="matrix(1,0,0,1,0,0)" fill-rule="nonzero"></path></g><g clip-path="url(#SvgjsClipPath455289331f533-8b48-4a97-8009-fcfc06b63320)"><path d=" M 3.4524622784661525 -4.581741060996859 C 3.0516145981948015 -4.581741060996859 2.7251176973286206 -4.255244160130678 2.7251176973286206 -3.854396479859327 C 2.7251176973286206 -3.453548799587975 3.0516145981948015 -3.1270518987217946 3.4524622784661525 -3.1270518987217946 C 3.853309958737504 -3.1270518987217946 4.179806859603684 -3.453548799587975 4.179806859603684 -3.854396479859327 C 4.179806859603684 -4.255244160130678 3.8533099587375035 -4.581741060996859 3.4524622784661525 -4.581741060996859 Z" fill="#431a10" transform="matrix(1,0,0,1,0,0)" fill-rule="nonzero"></path></g><g clip-path="url(#SvgjsClipPath455289331f533-8b48-4a97-8009-fcfc06b63320)"><path d=" M 2.1884990285782635 -4.203521878805342 C 1.8264430593009142 -4.203521878805342 1.5322725842630678 -3.9093514037674963 1.5322725842630678 -3.547295434490146 C 1.5322725842630678 -3.1852394652127978 1.8264430593009142 -2.89106899017495 2.1884990285782635 -2.89106899017495 C 2.4083187242109396 -2.89106899017495 2.6022772791809485 -3.000978837991289 2.721885054745787 -3.1690762522986287 C 2.5537876404384465 -3.34687159435447 2.450343077787775 -3.5860871454841483 2.450343077787775 -3.8511638372764927 C 2.450343077787775 -3.9449104721786643 2.4632736481191086 -4.035424464498 2.4891347887817767 -4.122705814234505 C 2.3986207964624398 -4.171195452977007 2.298408876394602 -4.203521878805342 2.1884990285782635 -4.203521878805342 Z" fill="#431a10" transform="matrix(1,0,0,1,0,0)" fill-rule="nonzero"></path></g><g clip-path="url(#SvgjsClipPath455289331f533-8b48-4a97-8009-fcfc06b63320)"><path d=" M 4.713192885771209 -2.89106899017495 C 5.0752488550485575 -2.89106899017495 5.369419330086405 -3.1852394652127964 5.369419330086405 -3.547295434490146 C 5.369419330086405 -3.9093514037674963 5.075248855048558 -4.203521878805342 4.713192885771209 -4.203521878805342 C 4.603283037954871 -4.203521878805342 4.503071117887033 -4.174428095559841 4.4125571255676945 -4.125938456817339 C 4.4384182662303635 -4.038657107080834 4.451348836561697 -3.948143114761498 4.451348836561697 -3.854396479859327 C 4.451348836561697 -3.5893197880669807 4.347904273911025 -3.350104236937304 4.179806859603684 -3.172308894881463 C 4.299414635168523 -3.0042114805741216 4.493373190138532 -2.89106899017495 4.713192885771209 -2.89106899017495 Z" fill="#431a10" transform="matrix(1,0,0,1,0,0)" fill-rule="nonzero"></path></g><g clip-path="url(#SvgjsClipPath455289331f533-8b48-4a97-8009-fcfc06b63320)"><path d=" M 6.520240089575123 -1.53335910538489 C 6.520240089575123 -1.0355321476285342 6.116159766720937 -0.6314518247743504 5.618332808964582 -0.6314518247743504 L 3.643188190853328 -0.6314518247743504 L 3.643188190853328 -0.2499999999999991 L 5.618332808964582 -0.2499999999999991 C 6.326281534605114 -0.2499999999999991 6.901691914349472 -0.8254103797443593 6.901691914349472 -1.53335910538489 L 6.901691914349472 -3.214333248458297 L 6.520240089575123 -3.214333248458297 L 6.520240089575123 -1.53335910538489 Z" fill="#3e7742" transform="matrix(1,0,0,1,0,0)" fill-rule="nonzero"></path></g><g clip-path="url(#SvgjsClipPath455289331f533-8b48-4a97-8009-fcfc06b63320)"><path d=" M 6.432958739838618 -6.501930755199944 L 6.432958739838618 -6.501930755199944 C 6.339212104936446 -6.540722466193945 6.239000184868609 -6.56335096427378 6.135555622217939 -6.56335096427378 L 5.5569125998907465 -6.56335096427378 L 5.5569125998907465 -6.181899139499429 L 5.5569125998907465 -5.88449602187875 L 5.259509482270066 -5.88449602187875 L 4.878057657495716 -5.88449602187875 L 4.580654539875036 -5.88449602187875 L 4.580654539875036 -6.181899139499429 L 4.580654539875036 -6.560118321690946 L 3.643188190853328 -6.560118321690946 L 3.643188190853328 -5.108661801998716 L 6.520240089575123 -5.108661801998716 L 6.520240089575123 -3.595785073232648 L 6.901691914349472 -3.595785073232648 L 6.901691914349472 -5.793982029559412 C 6.901691914349471 -6.104315717511426 6.717431287127964 -6.382322979635106 6.432958739838618 -6.501930755199944 Z" fill="#f7ca4d" transform="matrix(1,0,0,1,0,0)" fill-rule="nonzero"></path></g><g clip-path="url(#SvgjsClipPath455289331f533-8b48-4a97-8009-fcfc06b63320)"><path d=" M 0.3814518247743502 -1.53335910538489 L 0.3814518247743502 -3.2143332484582983 L 0 -3.2143332484582983 L 0 -1.53335910538489 C 0 -0.8254103797443593 0.5754103797443588 -0.2499999999999991 1.2833591053848905 -0.2499999999999991 L 3.2585037234961445 -0.2499999999999991 L 3.2585037234961445 -0.6314518247743504 L 1.28335910538489 -0.6314518247743504 C 0.7855321476285347 -0.6314518247743504 0.3814518247743502 -1.0387647902113697 0.3814518247743502 -1.53335910538489 Z" fill="#b88059" transform="matrix(1,0,0,1,0,0)" fill-rule="nonzero"></path></g><g clip-path="url(#SvgjsClipPath455289331f533-8b48-4a97-8009-fcfc06b63320)"><path d=" M 0.3814518247743502 -5.111894444581549 L 3.2585037234961445 -5.111894444581549 L 3.2585037234961445 -6.560118321690946 L 2.3210373744744364 -6.560118321690946 L 2.3210373744744364 -6.1786664969165965 L 2.3210373744744364 -5.881263379295916 L 2.0236342568537564 -5.881263379295916 L 1.642182432079406 -5.881263379295916 L 1.3447793144587263 -5.881263379295916 L 1.3447793144587263 -6.1786664969165965 L 1.3447793144587263 -6.560118321690946 L 0.7693689347143674 -6.560118321690946 C 0.5139901706705228 -6.560118321690946 0.2747746195408454 -6.434045260960441 0.13253834589617253 -6.2206908504934315 C 0.04525699615966868 -6.094617789762926 0 -5.949148873535419 0 -5.793982029559412 L 0 -3.599017715815482 L 0.3814518247743502 -3.599017715815482 L 0.3814518247743502 -5.111894444581549 Z" fill="#b88059" transform="matrix(1,0,0,1,0,0)" fill-rule="nonzero"></path></g><g clip-path="url(#SvgjsClipPath455289331f533-8b48-4a97-8009-fcfc06b63320)"><path d=" M 4.878057657495716 -6.94480278904813 L 5.259509482270066 -6.94480278904813 L 5.259509482270066 -6.181899139499429 L 4.878057657495716 -6.181899139499429 Z" fill="#431a10" transform="matrix(1,0,0,1,0,0)" fill-rule="nonzero"></path></g><g clip-path="url(#SvgjsClipPath455289331f533-8b48-4a97-8009-fcfc06b63320)"><path d=" M 1.642182432079406 -6.94480278904813 L 2.0236342568537564 -6.94480278904813 L 2.0236342568537564 -6.181899139499429 L 1.642182432079406 -6.181899139499429 Z" fill="#431a10" transform="matrix(1,0,0,1,0,0)" fill-rule="nonzero"></path></g><g clip-path="url(#SvgjsClipPath455289331f533-8b48-4a97-8009-fcfc06b63320)"><path d=" M 3.4524622784661525 -2.913697488254785 C 3.038684027863468 -2.913697488254785 2.6830933437517857 -2.2897974697679233 2.537624427524279 -1.161605208359041 L 4.367300129408028 -1.161605208359041 C 4.2185985705976865 -2.2897974697679233 3.8662405290688375 -2.913697488254785 3.4524622784661525 -2.913697488254785 Z" fill="#431a10" transform="matrix(1,0,0,1,0,0)" fill-rule="nonzero"></path></g><g clip-path="url(#SvgjsClipPath455289331f533-8b48-4a97-8009-fcfc06b63320)"><path d=" M 4.680866459942874 -2.6874125074564423 C 4.548328114046702 -2.6874125074564423 4.422255053316196 -2.622759655799773 4.305879920334191 -2.4966865950692663 C 4.464279406893031 -2.1604917664545846 4.583887182457869 -1.7079218048578984 4.651772676697372 -1.161605208359041 L 5.563377885056412 -1.161605208359041 C 5.398513113331905 -2.1443285535404177 5.065550927300058 -2.6874125074564423 4.680866459942874 -2.6874125074564423 Z" fill="#431a10" transform="matrix(1,0,0,1,0,0)" fill-rule="nonzero"></path></g><g clip-path="url(#SvgjsClipPath455289331f533-8b48-4a97-8009-fcfc06b63320)"><path d=" M 2.2499192376520996 -1.16160520835904 C 2.3178047318916026 -1.7079218048578984 2.4374125074564414 -2.157259123871752 2.5958119940152815 -2.4966865950692663 C 2.479436861033277 -2.622759655799771 2.353363800302771 -2.6874125074564414 2.2208254544065986 -2.6874125074564414 C 1.8361409870494152 -2.6874125074564414 1.5031788010175668 -2.1475611961232506 1.341546671875893 -1.1648378509418738 L 2.2499192376520996 -1.1648378509418738 Z" fill="#431a10" transform="matrix(1,0,0,1,0,0)" fill-rule="nonzero"></path></g><g clip-path="url(#SvgjsClipPath455289331f533-8b48-4a97-8009-fcfc06b63320)"><path d=" M 3.4524622784661525 -4.581741060996859 C 3.0516145981948015 -4.581741060996859 2.7251176973286206 -4.255244160130678 2.7251176973286206 -3.854396479859327 C 2.7251176973286206 -3.453548799587975 3.0516145981948015 -3.1270518987217946 3.4524622784661525 -3.1270518987217946 C 3.853309958737504 -3.1270518987217946 4.179806859603684 -3.453548799587975 4.179806859603684 -3.854396479859327 C 4.179806859603684 -4.255244160130678 3.8533099587375035 -4.581741060996859 3.4524622784661525 -4.581741060996859 Z" fill="#431a10" transform="matrix(1,0,0,1,0,0)" fill-rule="nonzero"></path></g><g clip-path="url(#SvgjsClipPath455289331f533-8b48-4a97-8009-fcfc06b63320)"><path d=" M 2.1884990285782635 -4.203521878805342 C 1.8264430593009142 -4.203521878805342 1.5322725842630678 -3.9093514037674963 1.5322725842630678 -3.547295434490146 C 1.5322725842630678 -3.1852394652127978 1.8264430593009142 -2.89106899017495 2.1884990285782635 -2.89106899017495 C 2.4083187242109396 -2.89106899017495 2.6022772791809485 -3.000978837991289 2.721885054745787 -3.1690762522986287 C 2.5537876404384465 -3.34687159435447 2.450343077787775 -3.5860871454841483 2.450343077787775 -3.8511638372764927 C 2.450343077787775 -3.9449104721786643 2.4632736481191086 -4.035424464498 2.4891347887817767 -4.122705814234505 C 2.3986207964624398 -4.171195452977007 2.298408876394602 -4.203521878805342 2.1884990285782635 -4.203521878805342 Z" fill="#431a10" transform="matrix(1,0,0,1,0,0)" fill-rule="nonzero"></path></g><g clip-path="url(#SvgjsClipPath455289331f533-8b48-4a97-8009-fcfc06b63320)"><path d=" M 4.713192885771209 -2.89106899017495 C 5.0752488550485575 -2.89106899017495 5.369419330086405 -3.1852394652127964 5.369419330086405 -3.547295434490146 C 5.369419330086405 -3.9093514037674963 5.075248855048558 -4.203521878805342 4.713192885771209 -4.203521878805342 C 4.603283037954871 -4.203521878805342 4.503071117887033 -4.174428095559841 4.4125571255676945 -4.125938456817339 C 4.4384182662303635 -4.038657107080834 4.451348836561697 -3.948143114761498 4.451348836561697 -3.854396479859327 C 4.451348836561697 -3.5893197880669807 4.347904273911025 -3.350104236937304 4.179806859603684 -3.172308894881463 C 4.299414635168523 -3.0042114805741216 4.493373190138532 -2.89106899017495 4.713192885771209 -2.89106899017495 Z" fill="#431a10" transform="matrix(1,0,0,1,0,0)" fill-rule="nonzero"></path></g></g><g><path d=" M 0.753 1.0499999999999998 L 0.378 1.0499999999999998 L 0.321 1.2225 L 0.012 1.2225 L 0.3975 0.1649999999999998 L 0.7365 0.1649999999999998 L 1.1205 1.2225 L 0.81 1.2225 L 0.753 1.0499999999999998 M 0.6795 0.825 L 0.5655 0.4829999999999999 L 0.453 0.825 L 0.6795 0.825 M 1.21950732421875 0.573 Q 1.27350732421875 0.4754999999999999 1.37025732421875 0.42299999999999993 Q 1.4670073242187498 0.37049999999999994 1.5915073242187499 0.37049999999999994 Q 1.75200732421875 0.37049999999999994 1.8615073242187499 0.45824999999999994 Q 1.9710073242187498 0.5459999999999999 2.00250732421875 0.7034999999999999 L 1.6905073242187498 0.7034999999999999 Q 1.66350732421875 0.6209999999999999 1.5855073242187498 0.6209999999999999 Q 1.53000732421875 0.6209999999999999 1.4977573242187499 0.66675 Q 1.46550732421875 0.7124999999999999 1.46550732421875 0.8009999999999999 Q 1.46550732421875 0.8895 1.4977573242187499 0.9359999999999999 Q 1.53000732421875 0.9824999999999999 1.5855073242187498 0.9824999999999999 Q 1.6650073242187498 0.9824999999999999 1.6905073242187498 0.8999999999999999 L 2.00250732421875 0.8999999999999999 Q 1.9710073242187498 1.0559999999999998 1.8615073242187499 1.1444999999999999 Q 1.75200732421875 1.2329999999999999 1.5915073242187499 1.2329999999999999 Q 1.4670073242187498 1.2329999999999999 1.37025732421875 1.1804999999999999 Q 1.27350732421875 1.128 1.21950732421875 1.0305 Q 1.16550732421875 0.9329999999999999 1.16550732421875 0.8009999999999999 Q 1.16550732421875 0.6704999999999999 1.21950732421875 0.573 M 2.6174992675781246 0.972 L 2.6174992675781246 1.2225 L 2.4899992675781246 1.2225 Q 2.167499267578125 1.2225 2.167499267578125 0.9029999999999999 L 2.167499267578125 0.6255 L 2.063999267578125 0.6255 L 2.063999267578125 0.3809999999999999 L 2.167499267578125 0.3809999999999999 L 2.167499267578125 0.17699999999999982 L 2.462999267578125 0.17699999999999982 L 2.462999267578125 0.3809999999999999 L 2.6159992675781245 0.3809999999999999 L 2.6159992675781245 0.6255 L 2.462999267578125 0.6255 L 2.462999267578125 0.9075 Q 2.462999267578125 0.942 2.4787492675781246 0.9569999999999999 Q 2.494499267578125 0.972 2.531999267578125 0.972 L 2.6174992675781246 0.972 M 2.7727800292968747 0.26024999999999987 Q 2.7255300292968747 0.2174999999999998 2.7255300292968747 0.1529999999999998 Q 2.7255300292968747 0.08699999999999997 2.7727800292968747 0.04349999999999987 Q 2.8200300292968747 0 2.8980300292968746 0 Q 2.974530029296875 0 3.021780029296875 0.04349999999999987 Q 3.069030029296875 0.08699999999999997 3.069030029296875 0.1529999999999998 Q 3.069030029296875 0.2174999999999998 3.021780029296875 0.26024999999999987 Q 2.974530029296875 0.30299999999999994 2.8980300292968746 0.30299999999999994 Q 2.8200300292968747 0.30299999999999994 2.7727800292968747 0.26024999999999987 M 3.0435300292968748 0.3809999999999999 L 3.0435300292968748 1.2225 L 2.7495300292968747 1.2225 L 2.7495300292968747 0.3809999999999999 L 3.0435300292968748 0.3809999999999999 M 3.3742551269531247 1.1804999999999999 Q 3.2745051269531245 1.128 3.2175051269531245 1.0305 Q 3.1605051269531246 0.9329999999999999 3.1605051269531246 0.8009999999999999 Q 3.1605051269531246 0.6704999999999999 3.2182551269531245 0.573 Q 3.2760051269531245 0.4754999999999999 3.3757551269531247 0.42299999999999993 Q 3.4755051269531245 0.37049999999999994 3.6015051269531244 0.37049999999999994 Q 3.7275051269531243 0.37049999999999994 3.8272551269531245 0.42299999999999993 Q 3.9270051269531248 0.4754999999999999 3.9847551269531247 0.573 Q 4.042505126953125 0.6704999999999999 4.042505126953125 0.8009999999999999 Q 4.042505126953125 0.9315 3.9847551269531247 1.02975 Q 3.9270051269531248 1.128 3.8265051269531245 1.1804999999999999 Q 3.7260051269531247 1.2329999999999999 3.600005126953125 1.2329999999999999 Q 3.4740051269531245 1.2329999999999999 3.3742551269531247 1.1804999999999999 M 3.7027551269531247 0.9322499999999999 Q 3.7440051269531245 0.8864999999999998 3.7440051269531245 0.8009999999999999 Q 3.7440051269531245 0.7154999999999999 3.7027551269531247 0.6704999999999999 Q 3.6615051269531245 0.6255 3.6015051269531244 0.6255 Q 3.5415051269531244 0.6255 3.5010051269531246 0.6704999999999999 Q 3.4605051269531244 0.7154999999999999 3.4605051269531244 0.8009999999999999 Q 3.4605051269531244 0.8879999999999999 3.4995051269531245 0.9329999999999999 Q 3.5385051269531247 0.978 3.600005126953125 0.978 Q 3.6615051269531245 0.978 3.7027551269531247 0.9322499999999999 M 4.940984619140624 0.47024999999999995 Q 5.026484619140625 0.567 5.026484619140625 0.732 L 5.026484619140625 1.2225 L 4.7324846191406245 1.2225 L 4.7324846191406245 0.7709999999999999 Q 4.7324846191406245 0.699 4.694984619140625 0.65775 Q 4.657484619140624 0.6164999999999999 4.594484619140625 0.6164999999999999 Q 4.528484619140625 0.6164999999999999 4.490984619140624 0.65775 Q 4.4534846191406245 0.699 4.4534846191406245 0.7709999999999999 L 4.4534846191406245 1.2225 L 4.159484619140624 1.2225 L 4.159484619140624 0.3809999999999999 L 4.4534846191406245 0.3809999999999999 L 4.4534846191406245 0.5009999999999999 Q 4.492484619140624 0.44399999999999995 4.558484619140624 0.40874999999999995 Q 4.624484619140625 0.37349999999999994 4.7099846191406245 0.37349999999999994 Q 4.855484619140625 0.37349999999999994 4.940984619140624 0.47024999999999995 M 6.008195800781249 0.7717499999999999 Q 6.062945800781249 0.843 6.062945800781249 0.9344999999999999 Q 6.062945800781249 1.0695 5.969945800781249 1.146 Q 5.876945800781249 1.2225 5.708945800781249 1.2225 L 5.185445800781249 1.2225 L 5.185445800781249 0.1649999999999998 L 5.6924458007812495 0.1649999999999998 Q 5.854445800781249 0.1649999999999998 5.946695800781249 0.23699999999999988 Q 6.038945800781249 0.30899999999999994 6.038945800781249 0.4394999999999999 Q 6.038945800781249 0.5324999999999999 5.990195800781249 0.5947499999999999 Q 5.941445800781249 0.6569999999999999 5.86044580078125 0.6794999999999999 Q 5.95344580078125 0.7004999999999999 6.008195800781249 0.7717499999999999 M 5.479445800781249 0.5849999999999999 L 5.62794580078125 0.5849999999999999 Q 5.7389458007812495 0.5849999999999999 5.7389458007812495 0.49349999999999994 Q 5.7389458007812495 0.3989999999999999 5.62794580078125 0.3989999999999999 L 5.479445800781249 0.3989999999999999 L 5.479445800781249 0.5849999999999999 M 5.7614458007812495 0.8924999999999998 Q 5.7614458007812495 0.8444999999999999 5.732195800781249 0.819 Q 5.702945800781249 0.7934999999999999 5.64894580078125 0.7934999999999999 L 5.479445800781249 0.7934999999999999 L 5.479445800781249 0.9854999999999999 L 5.65044580078125 0.9854999999999999 Q 5.7614458007812495 0.9854999999999999 5.7614458007812495 0.8924999999999998 M 6.354726562499999 1.1804999999999999 Q 6.2549765625 1.128 6.197976562499999 1.0305 Q 6.140976562499999 0.9329999999999999 6.140976562499999 0.8009999999999999 Q 6.140976562499999 0.6704999999999999 6.198726562499999 0.573 Q 6.2564765625 0.4754999999999999 6.356226562499999 0.42299999999999993 Q 6.455976562499999 0.37049999999999994 6.5819765624999995 0.37049999999999994 Q 6.707976562499999 0.37049999999999994 6.807726562499999 0.42299999999999993 Q 6.907476562499999 0.4754999999999999 6.965226562499999 0.573 Q 7.022976562499999 0.6704999999999999 7.022976562499999 0.8009999999999999 Q 7.022976562499999 0.9315 6.965226562499999 1.02975 Q 6.907476562499999 1.128 6.806976562499999 1.1804999999999999 Q 6.706476562499999 1.2329999999999999 6.5804765624999995 1.2329999999999999 Q 6.454476562499999 1.2329999999999999 6.354726562499999 1.1804999999999999 M 6.683226562499999 0.9322499999999999 Q 6.7244765625 0.8864999999999998 6.7244765625 0.8009999999999999 Q 6.7244765625 0.7154999999999999 6.683226562499999 0.6704999999999999 Q 6.641976562499999 0.6255 6.5819765624999995 0.6255 Q 6.521976562499999 0.6255 6.481476562499999 0.6704999999999999 Q 6.4409765624999995 0.7154999999999999 6.4409765624999995 0.8009999999999999 Q 6.4409765624999995 0.8879999999999999 6.479976562499999 0.9329999999999999 Q 6.518976562499999 0.978 6.5804765624999995 0.978 Q 6.641976562499999 0.978 6.683226562499999 0.9322499999999999 M 7.139206054687499 0.573 Q 7.186456054687499 0.4754999999999999 7.268206054687499 0.42299999999999993 Q 7.349956054687499 0.37049999999999994 7.450456054687499 0.37049999999999994 Q 7.537456054687499 0.37049999999999994 7.600456054687499 0.4049999999999999 Q 7.663456054687499 0.4394999999999999 7.697956054687499 0.4979999999999999 L 7.697956054687499 0.3809999999999999 L 7.991956054687499 0.3809999999999999 L 7.991956054687499 1.2225 L 7.697956054687499 1.2225 L 7.697956054687499 1.1055 Q 7.663456054687499 1.164 7.599706054687499 1.1985 Q 7.5359560546874995 1.2329999999999999 7.450456054687499 1.2329999999999999 Q 7.349956054687499 1.2329999999999999 7.268206054687499 1.1804999999999999 Q 7.186456054687499 1.128 7.139206054687499 1.02975 Q 7.091956054687499 0.9315 7.091956054687499 0.8009999999999999 Q 7.091956054687499 0.6704999999999999 7.139206054687499 0.573 M 7.653706054687499 0.6734999999999999 Q 7.609456054687499 0.6269999999999999 7.544956054687499 0.6269999999999999 Q 7.478956054687499 0.6269999999999999 7.435456054687499 0.67275 Q 7.391956054687499 0.7184999999999999 7.391956054687499 0.8009999999999999 Q 7.391956054687499 0.8819999999999999 7.435456054687499 0.9292499999999999 Q 7.478956054687499 0.9764999999999999 7.544956054687499 0.9764999999999999 Q 7.609456054687499 0.9764999999999999 7.653706054687499 0.9299999999999999 Q 7.697956054687499 0.8835 7.697956054687499 0.8009999999999999 Q 7.697956054687499 0.7199999999999999 7.653706054687499 0.6734999999999999 M 8.570945068359373 0.41549999999999987 Q 8.641445068359374 0.37349999999999994 8.722445068359374 0.37349999999999994 L 8.722445068359374 0.6869999999999999 L 8.639945068359374 0.6869999999999999 Q 8.543945068359374 0.6869999999999999 8.497445068359374 0.7244999999999999 Q 8.450945068359374 0.7619999999999999 8.450945068359374 0.855 L 8.450945068359374 1.2225 L 8.156945068359374 1.2225 L 8.156945068359374 0.3809999999999999 L 8.450945068359374 0.3809999999999999 L 8.450945068359374 0.5294999999999999 Q 8.500445068359374 0.4574999999999999 8.570945068359373 0.41549999999999987 M 8.823727294921873 0.573 Q 8.870977294921873 0.4754999999999999 8.953477294921873 0.42299999999999993 Q 9.035977294921874 0.37049999999999994 9.136477294921875 0.37049999999999994 Q 9.217477294921874 0.37049999999999994 9.281227294921873 0.4042499999999999 Q 9.344977294921874 0.43799999999999994 9.380977294921873 0.49649999999999994 L 9.380977294921873 0.11249999999999982 L 9.676477294921874 0.11249999999999982 L 9.676477294921874 1.2225 L 9.380977294921873 1.2225 L 9.380977294921873 1.1055 Q 9.346477294921874 1.164 9.283477294921873 1.1985 Q 9.220477294921874 1.2329999999999999 9.134977294921875 1.2329999999999999 Q 9.034477294921874 1.2329999999999999 8.952727294921873 1.1804999999999999 Q 8.870977294921873 1.128 8.823727294921873 1.02975 Q 8.776477294921873 0.9315 8.776477294921873 0.8009999999999999 Q 8.776477294921873 0.6704999999999999 8.823727294921873 0.573 M 9.338227294921873 0.6734999999999999 Q 9.293977294921874 0.6269999999999999 9.229477294921875 0.6269999999999999 Q 9.163477294921874 0.6269999999999999 9.119977294921874 0.67275 Q 9.076477294921874 0.7184999999999999 9.076477294921874 0.8009999999999999 Q 9.076477294921874 0.8819999999999999 9.119977294921874 0.9292499999999999 Q 9.163477294921874 0.9764999999999999 9.229477294921875 0.9764999999999999 Q 9.293977294921874 0.9764999999999999 9.338227294921873 0.9299999999999999 Q 9.382477294921873 0.8835 9.382477294921873 0.8009999999999999 Q 9.382477294921873 0.7199999999999999 9.338227294921873 0.6734999999999999" fill="#431a10" fill-rule="nonzero"></path></g><g></g></g><defs><clipPath id="SvgjsClipPath45533"><path d=" M 0 -6.94480278904813 h 6.901691914349472 v 6.69480278904813 h -6.901691914349472 Z"></path></clipPath><clipPath id="SvgjsClipPath455289331f533-8b48-4a97-8009-fcfc06b63320"><path d=" M 0 -6.94480278904813 L 6.901691914349472 -6.94480278904813 L 6.901691914349472 -0.25 L 0 -0.25 Z"></path></clipPath></defs></svg>